<svg width="22" height="22" viewBox="0 0 22 22" fill="none" xmlns="http://www.w3.org/2000/svg">
<path d="M17.7381 18.395C17.6225 18.3951 17.5089 18.3645 17.4089 18.3065L4.92658 11.0799C4.82703 11.0221 4.74439 10.9392 4.68695 10.8395C4.6295 10.7398 4.59927 10.6267 4.59927 10.5116C4.59927 10.3965 4.6295 10.2834 4.68695 10.1837C4.74439 10.084 4.82703 10.0011 4.92658 9.94331L17.4089 2.71668C17.5088 2.65889 17.622 2.62841 17.7374 2.62829C17.8527 2.62817 17.9661 2.65842 18.066 2.71601C18.166 2.77359 18.249 2.85648 18.3068 2.95633C18.3645 3.05618 18.395 3.16948 18.395 3.28483V17.7381C18.395 17.9123 18.3258 18.0794 18.2026 18.2026C18.0794 18.3258 17.9123 18.395 17.7381 18.395Z" fill="black"/>
<path d="M1.31393 2.62786H2.62787V18.395H1.31393V2.62786Z" fill="black"/>
</svg>
