<svg width="22" height="22" viewBox="0 0 22 22" fill="none" xmlns="http://www.w3.org/2000/svg">
<path d="M10.5115 0C16.3168 0 21.0229 4.70613 21.0229 10.5115C21.0229 16.3168 16.3168 21.0229 10.5115 21.0229C4.70613 21.0229 0 16.3168 0 10.5115C0 4.70613 4.70613 0 10.5115 0ZM10.5115 19.1948C15.3071 19.1948 19.1948 15.3072 19.1948 10.5115C19.1948 5.71575 15.3072 1.82807 10.5115 1.82807C5.71577 1.82807 1.82807 5.71575 1.82807 10.5115C1.83378 15.3048 5.71804 19.1891 10.5109 19.1948H10.5114L10.5115 19.1948ZM8.81135 14.8714H6.98328V6.1515H8.81135V14.8714ZM14.0396 14.8714H12.2116V6.1515H14.0396V14.8714Z" fill="black"/>
</svg>
