<svg width="22" height="22" viewBox="0 0 22 22" fill="none" xmlns="http://www.w3.org/2000/svg">
<path d="M18.395 2.62786H19.709V18.395H18.395V2.62786Z" fill="black"/>
<path d="M3.28483 18.395C3.11059 18.395 2.94349 18.3258 2.82028 18.2026C2.69708 18.0794 2.62786 17.9123 2.62786 17.7381V3.28482C2.62789 3.16945 2.6583 3.05612 2.71604 2.95623C2.77377 2.85635 2.85679 2.77342 2.95674 2.71581C3.0567 2.65819 3.17007 2.62791 3.28544 2.62802C3.40081 2.62813 3.51412 2.65862 3.61397 2.71642L16.0963 9.94304C16.1959 10.0008 16.2785 10.0837 16.336 10.1834C16.3934 10.2831 16.4236 10.3962 16.4236 10.5113C16.4236 10.6264 16.3934 10.7395 16.336 10.8392C16.2785 10.9389 16.1959 11.0218 16.0963 11.0796L3.61397 18.3062C3.51401 18.3643 3.40046 18.395 3.28483 18.395Z" fill="black"/>
</svg>
