<svg width="21" height="20" viewBox="0 0 21 20" fill="none" xmlns="http://www.w3.org/2000/svg">
<path d="M10.4902 13.6012C8.47026 13.6012 6.83085 11.9618 6.83085 9.94181C6.83085 7.92183 8.47026 6.28242 10.4902 6.28242C12.5102 6.28242 14.1496 7.92183 14.1496 9.94181C14.1496 11.9618 12.5102 13.6012 10.4902 13.6012ZM10.4902 7.74618C9.2802 7.74618 8.29461 8.73177 8.29461 9.94181C8.29461 11.1518 9.2802 12.1374 10.4902 12.1374C11.7003 12.1374 12.6859 11.1518 12.6859 9.94181C12.6859 8.73177 11.7003 7.74618 10.4902 7.74618Z" fill="black"/>
<path d="M13.6227 19.8854C13.4178 19.8854 13.2128 19.8561 13.0079 19.8073C12.4029 19.6414 11.8954 19.2609 11.5734 18.7241L11.4563 18.529C10.8806 17.5336 10.0901 17.5336 9.5144 18.529L9.40706 18.7144C9.08504 19.2609 8.5776 19.6512 7.97258 19.8073C7.35781 19.9732 6.72351 19.8854 6.1868 19.5634L4.50836 18.5973C3.9131 18.2557 3.48374 17.6995 3.29833 17.0262C3.12268 16.3529 3.2105 15.66 3.55204 15.0648C3.83504 14.5671 3.9131 14.1182 3.74721 13.8352C3.58132 13.5522 3.16171 13.3863 2.58597 13.3863C1.16125 13.3863 0 12.2251 0 10.8003V9.08288C0 7.65816 1.16125 6.49691 2.58597 6.49691C3.16171 6.49691 3.58132 6.33102 3.74721 6.04803C3.9131 5.76503 3.8448 5.31615 3.55204 4.81847C3.2105 4.22321 3.12268 3.52061 3.29833 2.85704C3.47398 2.18371 3.90335 1.62749 4.50836 1.28594L6.19656 0.319866C7.29926 -0.333944 8.75325 0.0466317 9.41682 1.16884L9.53392 1.36401C10.1097 2.35936 10.9001 2.35936 11.4758 1.36401L11.5832 1.1786C12.2467 0.0466317 13.7007 -0.333944 14.8132 0.329624L16.4916 1.2957C17.0869 1.63725 17.5163 2.19347 17.7017 2.8668C17.8773 3.54013 17.7895 4.23297 17.448 4.82823C17.165 5.32591 17.0869 5.77479 17.2528 6.05778C17.4187 6.34078 17.8383 6.50667 18.414 6.50667C19.8388 6.50667 21 7.66791 21 9.09264V10.8101C21 12.2348 19.8388 13.3961 18.414 13.3961C17.8383 13.3961 17.4187 13.562 17.2528 13.845C17.0869 14.128 17.1552 14.5768 17.448 15.0745C17.7895 15.6698 17.8871 16.3724 17.7017 17.0359C17.526 17.7093 17.0967 18.2655 16.4916 18.607L14.8034 19.5731C14.4326 19.778 14.0325 19.8854 13.6227 19.8854ZM10.4902 16.2748C11.3587 16.2748 12.1687 16.8213 12.7249 17.7873L12.8322 17.9727C12.9493 18.1777 13.1445 18.324 13.3787 18.3826C13.6129 18.4411 13.8471 18.4119 14.0423 18.2948L15.7305 17.3189C15.9842 17.1726 16.1794 16.9286 16.2574 16.6359C16.3355 16.3431 16.2965 16.0406 16.1501 15.7869C15.5939 14.8306 15.5256 13.845 15.9549 13.0936C16.3843 12.3422 17.2723 11.9128 18.3848 11.9128C19.0093 11.9128 19.507 11.4151 19.507 10.7906V9.07312C19.507 8.45834 19.0093 7.95091 18.3848 7.95091C17.2723 7.95091 16.3843 7.52154 15.9549 6.77014C15.5256 6.01875 15.5939 5.03316 16.1501 4.07684C16.2965 3.82312 16.3355 3.52061 16.2574 3.22786C16.1794 2.93511 15.994 2.70091 15.7402 2.54477L14.052 1.57869C13.6324 1.32498 13.0762 1.47135 12.8225 1.90072L12.7151 2.08613C12.1589 3.05221 11.349 3.59868 10.4805 3.59868C9.61199 3.59868 8.80204 3.05221 8.24582 2.08613L8.13848 1.89096C7.89452 1.48111 7.34805 1.33474 6.92844 1.57869L5.24024 2.55453C4.98652 2.70091 4.79136 2.94487 4.71329 3.23762C4.63522 3.53037 4.67426 3.83288 4.82063 4.08659C5.37686 5.04291 5.44517 6.02851 5.0158 6.7799C4.58643 7.5313 3.69842 7.96067 2.58597 7.96067C1.96143 7.96067 1.46375 8.45834 1.46375 9.08288V10.8003C1.46375 11.4151 1.96143 11.9226 2.58597 11.9226C3.69842 11.9226 4.58643 12.3519 5.0158 13.1033C5.44517 13.8547 5.37686 14.8403 4.82063 15.7966C4.67426 16.0503 4.63522 16.3529 4.71329 16.6456C4.79136 16.9384 4.97677 17.1726 5.23048 17.3287L6.91868 18.2948C7.12361 18.4216 7.36756 18.4509 7.59201 18.3924C7.82621 18.3338 8.02138 18.1777 8.14823 17.9727L8.25558 17.7873C8.8118 16.831 9.62175 16.2748 10.4902 16.2748Z" fill="black"/>
</svg>
