<svg width="20" height="20" viewBox="0 0 20 20" fill="none" xmlns="http://www.w3.org/2000/svg">
<path fill-rule="evenodd" clip-rule="evenodd" d="M16.3636 1.81818H3.63636C2.63221 1.81818 1.81818 2.63221 1.81818 3.63636V16.3636C1.81818 17.3678 2.63221 18.1818 3.63636 18.1818H16.3636C17.3678 18.1818 18.1818 17.3678 18.1818 16.3636V3.63636C18.1818 2.63221 17.3678 1.81818 16.3636 1.81818ZM3.63636 0C1.62805 0 0 1.62805 0 3.63636V16.3636C0 18.3719 1.62805 20 3.63636 20H16.3636C18.3719 20 20 18.3719 20 16.3636V3.63636C20 1.62805 18.3719 0 16.3636 0H3.63636Z" fill="black"/>
<path d="M13.6364 10L8.18182 13.9364V6.06351L13.6364 10Z" fill="black"/>
</svg>
