<svg width="30" height="39" viewBox="0 0 30 39" fill="none" xmlns="http://www.w3.org/2000/svg">
<path fill-rule="evenodd" clip-rule="evenodd" d="M14.3824 38.3756C14.3829 38.3758 14.3832 38.376 15 37.5L14.3824 38.3756ZM15.6176 38.3756L15.6214 38.3728L15.6312 38.3659L15.6652 38.3415C15.6945 38.3205 15.7366 38.2901 15.7906 38.2504C15.8986 38.171 16.0545 38.0548 16.2515 37.9034C16.6454 37.6005 17.204 37.1565 17.8726 36.5849C19.2083 35.4429 20.9901 33.7851 22.7748 31.7206C26.3185 27.6213 30 21.7709 30 15.0824C30 11.0844 28.4211 7.24875 25.6089 4.41975C22.7962 1.59058 18.9802 0 15 0C11.0197 0 7.20375 1.59058 4.39114 4.41975C1.57886 7.24875 0 11.0844 0 15.0824C0 21.7709 3.68154 27.6213 7.22518 31.7206C9.00986 33.7851 10.7917 35.4429 12.1274 36.5849C12.796 37.1565 13.3546 37.6005 13.7485 37.9034C13.9455 38.0548 14.1014 38.171 14.2094 38.2504C14.2634 38.2901 14.3055 38.3205 14.3348 38.3415L14.3688 38.3659L14.3786 38.3728L14.3824 38.3756C14.7524 38.636 15.2476 38.636 15.6176 38.3756ZM15 37.5L15.6176 38.3756C15.6171 38.3758 15.6168 38.376 15 37.5ZM20.3571 15C20.3571 17.9586 17.9586 20.3571 15 20.3571C12.0414 20.3571 9.64286 17.9586 9.64286 15C9.64286 12.0414 12.0414 9.64286 15 9.64286C17.9586 9.64286 20.3571 12.0414 20.3571 15Z" fill="black"/>
</svg>
