<svg width="26" height="26" viewBox="0 0 26 26" fill="none" xmlns="http://www.w3.org/2000/svg">
<path d="M12.6061 19.5L7.80787 12.5125C7.0225 11.5562 6.51673 10.3896 6.34947 9.14834C6.18222 7.90712 6.36035 6.64243 6.86313 5.50157C7.36592 4.36071 8.17265 3.39064 9.18939 2.70432C10.2061 2.01801 11.391 1.64371 12.6061 1.62501C14.2903 1.64217 15.8994 2.34699 17.0808 3.58509C18.2622 4.8232 18.9196 6.49367 18.9091 8.23063C18.9097 9.74589 18.4095 11.2161 17.4909 12.3988L12.6061 19.5ZM12.6061 3.25001C11.339 3.26501 10.1296 3.79794 9.24324 4.73177C8.35691 5.6656 7.86617 6.92399 7.87878 8.23063C7.88406 9.42324 8.30013 10.5751 9.05272 11.4806L12.6061 16.6725L16.2539 11.375C16.9473 10.4824 17.3277 9.37431 17.3333 8.23063C17.3459 6.92399 16.8552 5.6656 15.9689 4.73177C15.0825 3.79794 13.8731 3.26501 12.6061 3.25001Z" fill="black"/>
<path d="M12.6061 8.93751C13.4763 8.93751 14.1818 8.20997 14.1818 7.31251C14.1818 6.41504 13.4763 5.68751 12.6061 5.68751C11.7358 5.68751 11.0303 6.41504 11.0303 7.31251C11.0303 8.20997 11.7358 8.93751 12.6061 8.93751Z" fill="black"/>
<path d="M22.0606 9.74999H20.4849V11.375H22.0606V22.75H3.15153V11.375H4.72728V9.74999H3.15153C2.73361 9.74999 2.33281 9.9212 2.0373 10.2259C1.74178 10.5307 1.57577 10.944 1.57577 11.375V22.75C1.57577 23.181 1.74178 23.5943 2.0373 23.899C2.33281 24.2038 2.73361 24.375 3.15153 24.375H22.0606C22.4785 24.375 22.8793 24.2038 23.1748 23.899C23.4704 23.5943 23.6364 23.181 23.6364 22.75V11.375C23.6364 10.944 23.4704 10.5307 23.1748 10.2259C22.8793 9.9212 22.4785 9.74999 22.0606 9.74999Z" fill="black"/>
</svg>
