<svg width="33" height="34" viewBox="0 0 33 34" fill="none" xmlns="http://www.w3.org/2000/svg">
<path d="M16.4848 25.5L10.2103 16.3625C9.18327 15.112 8.52188 13.5864 8.30316 11.9632C8.08444 10.3401 8.31738 8.68625 8.97487 7.19436C9.63235 5.70247 10.6873 4.43391 12.0169 3.53642C13.3465 2.63894 14.8959 2.14946 16.4848 2.12501C18.6874 2.14745 20.7915 3.06914 22.3364 4.6882C23.8813 6.30726 24.741 8.49171 24.7273 10.7631C24.7281 12.7446 24.074 14.6672 22.8727 16.2138L16.4848 25.5ZM16.4848 4.25001C14.828 4.26963 13.2464 4.96653 12.0873 6.18769C10.9283 7.40886 10.2865 9.05445 10.303 10.7631C10.3099 12.3227 10.854 13.829 11.8382 15.0131L16.4848 21.8025L21.2551 14.875C22.1619 13.7078 22.6593 12.2587 22.6667 10.7631C22.6831 9.05445 22.0414 7.40886 20.8824 6.18769C19.7233 4.96653 18.1417 4.26963 16.4848 4.25001Z" fill="black"/>
<path d="M16.4848 11.6875C17.6229 11.6875 18.5455 10.7361 18.5455 9.56251C18.5455 8.3889 17.6229 7.43751 16.4848 7.43751C15.3468 7.43751 14.4242 8.3889 14.4242 9.56251C14.4242 10.7361 15.3468 11.6875 16.4848 11.6875Z" fill="black"/>
<path d="M28.8485 12.75H26.7879V14.875H28.8485V29.75H4.12122V14.875H6.18183V12.75H4.12122C3.57472 12.75 3.05059 12.9739 2.66415 13.3724C2.27771 13.7709 2.06062 14.3114 2.06062 14.875V29.75C2.06062 30.3136 2.27771 30.8541 2.66415 31.2526C3.05059 31.6511 3.57472 31.875 4.12122 31.875H28.8485C29.395 31.875 29.9191 31.6511 30.3056 31.2526C30.692 30.8541 30.9091 30.3136 30.9091 29.75V14.875C30.9091 14.3114 30.692 13.7709 30.3056 13.3724C29.9191 12.9739 29.395 12.75 28.8485 12.75Z" fill="black"/>
</svg>
