<svg width="23" height="23" viewBox="0 0 23 23" fill="none" xmlns="http://www.w3.org/2000/svg">
<path d="M1 1H22.0589V22.0589H1V1Z" stroke="black" stroke-width="0.877455" stroke-miterlimit="10" stroke-linecap="round" stroke-linejoin="round"/>
<path d="M3.63237 3.63237H19.4266V19.4266H3.63237V3.63237Z" stroke="black" stroke-width="0.877455" stroke-miterlimit="10" stroke-linecap="round" stroke-linejoin="round"/>
<path d="M7.14219 10.652C8.1114 10.652 8.8971 9.86631 8.8971 8.8971C8.8971 7.92789 8.1114 7.14219 7.14219 7.14219C6.17298 7.14219 5.38728 7.92789 5.38728 8.8971C5.38728 9.86631 6.17298 10.652 7.14219 10.652Z" stroke="black" stroke-width="0.877455" stroke-miterlimit="10" stroke-linecap="round" stroke-linejoin="round"/>
<path d="M3.63237 3.63237H19.4266V19.4266H3.63237V3.63237Z" stroke="black" stroke-width="0.877455" stroke-miterlimit="10" stroke-linecap="round" stroke-linejoin="round"/>
<path d="M5.38728 14.6006C5.618 14.1531 5.70645 13.7375 6.70346 13.2844C7.84836 12.7641 8.01964 12.4069 9.33582 11.5295C11.418 10.1413 12.3157 7.56872 14.1618 7.58091C14.9167 7.58591 16.3555 10.652 17.6716 11.0907" stroke="black" stroke-width="0.877455" stroke-miterlimit="10" stroke-linecap="round" stroke-linejoin="round"/>
</svg>
