<svg width="23" height="24" viewBox="0 0 23 24" fill="none" xmlns="http://www.w3.org/2000/svg">
<path d="M18.5491 22.3988C20.4876 22.3988 22.0589 20.9618 22.0589 19.189C22.0589 17.4162 20.4876 15.9792 18.5491 15.9792C16.6106 15.9792 15.0393 17.4162 15.0393 19.189C15.0393 20.9618 16.6106 22.3988 18.5491 22.3988Z" stroke="black" stroke-width="1.75491" stroke-linecap="round" stroke-linejoin="round"/>
<path d="M18.5491 7.41964C20.4876 7.41964 22.0589 5.98255 22.0589 4.20982C22.0589 2.43709 20.4876 1 18.5491 1C16.6106 1 15.0393 2.43709 15.0393 4.20982C15.0393 5.98255 16.6106 7.41964 18.5491 7.41964Z" stroke="black" stroke-width="1.75491" stroke-linecap="round" stroke-linejoin="round"/>
<path d="M4.50982 14.9092C6.44824 14.9092 8.01964 13.4722 8.01964 11.6994C8.01964 9.92662 6.44824 8.48959 4.50982 8.48959C2.57141 8.48959 1 9.92662 1 11.6994C1 13.4722 2.57141 14.9092 4.50982 14.9092Z" stroke="black" stroke-width="1.75491" stroke-linecap="round" stroke-linejoin="round"/>
<path d="M15.6243 5.81473L7.43467 10.0945" stroke="black" stroke-width="1.75491"/>
<path d="M7.43467 13.3043L15.6243 17.5841" stroke="black" stroke-width="1.75491"/>
</svg>
