<svg width="22" height="22" viewBox="0 0 22 22" fill="none" xmlns="http://www.w3.org/2000/svg">
<path d="M8.12249 13.9363V7.08663C8.12263 7.00093 8.14582 6.91685 8.18963 6.84319C8.23344 6.76953 8.29625 6.70901 8.37149 6.66797C8.44672 6.62694 8.53161 6.60689 8.61726 6.60994C8.70291 6.61298 8.78616 6.63901 8.85829 6.68529L14.1866 10.1092C14.2541 10.1524 14.3096 10.2119 14.3481 10.2822C14.3865 10.3525 14.4067 10.4313 14.4067 10.5115C14.4067 10.5916 14.3865 10.6704 14.3481 10.7407C14.3096 10.811 14.2541 10.8705 14.1866 10.9138L8.85829 14.3386C8.78616 14.3849 8.70291 14.4109 8.61726 14.4139C8.53161 14.417 8.44672 14.3969 8.37149 14.3559C8.29625 14.3149 8.23344 14.2543 8.18963 14.1807C8.14582 14.107 8.12263 14.0229 8.12249 13.9372V13.9363Z" fill="black"/>
<path fill-rule="evenodd" clip-rule="evenodd" d="M10.5115 1.43338C8.1038 1.43338 5.79475 2.38982 4.09229 4.09229C2.38982 5.79475 1.43338 8.1038 1.43338 10.5115C1.43338 12.9191 2.38982 15.2281 4.09229 16.9306C5.79475 18.6331 8.1038 19.5895 10.5115 19.5895C12.9191 19.5895 15.2281 18.6331 16.9306 16.9306C18.6331 15.2281 19.5895 12.9191 19.5895 10.5115C19.5895 8.1038 18.6331 5.79475 16.9306 4.09229C15.2281 2.38982 12.9191 1.43338 10.5115 1.43338ZM0 10.5115C0 4.70626 4.70626 0 10.5115 0C16.3166 0 21.0229 4.70626 21.0229 10.5115C21.0229 16.3166 16.3166 21.0229 10.5115 21.0229C4.70626 21.0229 0 16.3166 0 10.5115Z" fill="black"/>
</svg>
