<svg width="25" height="25" viewBox="0 0 25 25" fill="none" xmlns="http://www.w3.org/2000/svg">
<path fill-rule="evenodd" clip-rule="evenodd" d="M20.4545 2.27273H4.54545C3.29026 2.27273 2.27273 3.29026 2.27273 4.54545V20.4545C2.27273 21.7098 3.29026 22.7273 4.54545 22.7273H20.4545C21.7098 22.7273 22.7273 21.7098 22.7273 20.4545V4.54545C22.7273 3.29026 21.7098 2.27273 20.4545 2.27273ZM4.54545 0C2.03507 0 0 2.03507 0 4.54545V20.4545C0 22.9649 2.03507 25 4.54545 25H20.4545C22.9649 25 25 22.9649 25 20.4545V4.54545C25 2.03507 22.9649 0 20.4545 0H4.54545Z" fill="black"/>
<path d="M17.0455 12.5L10.2273 17.4206V7.57939L17.0455 12.5Z" fill="black"/>
</svg>
