<svg width="22" height="20" viewBox="0 0 22 20" fill="none" xmlns="http://www.w3.org/2000/svg">
<path d="M14.6425 19.5366C14.1962 19.5366 13.75 19.4432 13.3868 19.2668L7.93866 16.5375C7.62734 16.3819 7.01508 16.3923 6.71414 16.5687L4.26509 17.9696C3.2066 18.5715 2.11698 18.6545 1.29717 18.1668C0.46698 17.6894 0 16.714 0 15.4894V5.40262C0 4.45828 0.62264 3.38942 1.44245 2.92244L5.93584 0.348856C6.69338 -0.0869918 7.84527 -0.118124 8.62357 0.276215L14.0717 3.00546C14.383 3.16112 14.9849 3.14036 15.2962 2.97432L17.7349 1.58376C18.7934 0.981874 19.883 0.898855 20.7028 1.38659C21.533 1.86395 22 2.83942 22 4.06394V14.1611C22 15.1055 21.3774 16.1743 20.5575 16.6413L16.0642 19.2149C15.6698 19.4224 15.151 19.5366 14.6425 19.5366ZM7.36791 14.8772C7.81414 14.8772 8.26036 14.9706 8.62357 15.147L14.0717 17.8762C14.383 18.0319 14.9849 18.0111 15.2962 17.8451L19.7896 15.2715C20.1217 15.0847 20.4434 14.5243 20.4434 14.1508V4.05357C20.4434 3.39979 20.2566 2.91206 19.9142 2.72527C19.5821 2.53847 19.0632 2.61112 18.5028 2.93281L16.0642 4.32338C15.3066 4.75923 14.1547 4.79036 13.3764 4.39602L7.92829 1.66678C7.61697 1.51112 7.01508 1.53187 6.70376 1.69791L2.21037 4.27149C1.8783 4.45828 1.5566 5.01866 1.5566 5.40262V15.4998C1.5566 16.1536 1.74339 16.6413 2.07547 16.8281C2.40754 17.0253 2.92641 16.9423 3.49716 16.6206L5.93584 15.23C6.34055 14.9913 6.85942 14.8772 7.36791 14.8772Z" fill="black"/>
<path d="M7.28643 15.7383C6.86096 15.7383 6.50813 15.3855 6.50813 14.96V1.46945C6.50813 1.04398 6.86096 0.691147 7.28643 0.691147C7.7119 0.691147 8.06473 1.04398 8.06473 1.46945V14.96C8.06473 15.3855 7.7119 15.7383 7.28643 15.7383Z" fill="black"/>
<path d="M14.7269 18.8516C14.3014 18.8516 13.9486 18.4988 13.9486 18.0733V4.18843C13.9486 3.76296 14.3014 3.41013 14.7269 3.41013C15.1524 3.41013 15.5052 3.76296 15.5052 4.18843V18.0733C15.5052 18.4988 15.1524 18.8516 14.7269 18.8516Z" fill="black"/>
</svg>
